<svg xmlns="http://www.w3.org/2000/svg" width="2400" height="600" viewBox="0 0 2400 600">
  <rect x="60" y="60" width="480" height="480" fill="#0A0A0A"/>
  <rect x="195" y="195" width="210" height="210" fill="#6BC31A"/>
  <path d="M660 398V202H772V286H660M716 286L772 398 M828 398V230L856 202H912L940 230V398M828 300H940 M996 398V202H1108V286H996 M1164 202H1276M1220 202V398M1164 398H1276 M1332 398V202H1416L1444 230V370L1416 398Z M1500 202H1612M1500 202V398M1500 300H1584M1500 398H1612 M1668 202H1780M1724 202V398 M1836 202H1948M1836 202V398M1836 300H1920M1836 398H1948 M2116 202H2032L2004 230V370L2032 398H2116 M2172 202V398M2284 202V398M2172 300H2284" fill="none" stroke="#0A0A0A" stroke-width="24" stroke-linecap="square" stroke-linejoin="miter"/>
</svg>
