<svg xmlns="http://www.w3.org/2000/svg" width="2400" height="600" viewBox="0 0 2400 600" role="img" aria-labelledby="title desc">
  <title id="title">Rapidetech</title>
  <desc id="desc">Symbole carré vert sur charbon et mot-symbole Rapidetech.</desc>
  <rect x="60" y="60" width="480" height="480" fill="#0A0A0A"/>
  <rect x="195" y="195" width="210" height="210" fill="#6BC31A"/>
  <path d="M706.55 382.07L706.55 322.54L730.80 322.54C749.91 322.54 756.04 326.70 762.65 339.44L785.19 382.07L827.83 382.07L804.06 337.97C797.93 326.46 792.30 318.62 777.60 314.70L777.60 312.74C808.47 309.80 823.90 293.88 823.90 267.17C823.90 235.81 800.88 217.92 760.45 217.92L669.80 217.92L669.80 382.07M706.55 251L760.21 251C777.60 251 785.44 256.63 785.44 272.81C785.44 289.95 777.60 294.86 760.21 294.86L706.55 294.86M879.27 382.07L894.95 345.81L977.03 345.81L992.46 382.07L1034.61 382.07L962.33 217.92L909.90 217.92L838.11 382.07M924.60 276.97L934.64 251.49L937.34 251.49L947.38 276.97L962.82 312.74L909.16 312.74M1089.73 382.07L1089.73 336.75L1138.73 336.75C1176.70 336.75 1201.20 314.94 1201.20 277.21C1201.20 239.48 1176.70 217.92 1138.73 217.92L1052.98 217.92L1052.98 382.07M1134.81 251C1155.14 251 1164.70 257.13 1164.70 277.21C1164.70 297.79 1155.14 303.67 1134.81 303.67L1089.73 303.67L1089.73 251M1260.74 382.07L1260.74 217.92L1223.99 217.92L1223.99 382.07M1370.99 382.07C1423.66 382.07 1456.98 351.45 1456.98 300C1456.98 248.55 1423.66 217.92 1370.99 217.92L1291.85 217.92L1291.85 382.07M1370.99 251C1404.31 251 1417.78 260.56 1417.78 300C1417.78 339.44 1404.31 349 1370.99 349L1328.60 349L1328.60 251M1621.62 382.07L1621.62 349L1519.46 349L1519.46 315.92L1617.95 315.92L1617.95 283.09L1519.46 283.09L1519.46 251L1621.62 251L1621.62 217.92L1482.71 217.92L1482.71 382.07M1739.47 382.07L1739.47 251L1800.47 251L1800.47 217.92L1641.71 217.92L1641.71 251L1702.72 251L1702.72 382.07M1962.42 382.07L1962.42 349L1860.25 349L1860.25 315.92L1958.74 315.92L1958.74 283.09L1860.25 283.09L1860.25 251L1962.42 251L1962.42 217.92L1823.50 217.92L1823.50 382.07M2072.91 384.52C2124.12 384.52 2156.70 359.04 2156.70 317.39L2156.70 313.72L2115.79 313.72L2115.79 317.39C2115.79 338.95 2103.54 349.25 2073.65 349.25C2037.63 349.25 2024.16 336.50 2024.16 300C2024.16 263.50 2037.63 250.75 2073.65 250.75C2103.54 250.75 2115.79 261.04 2115.79 282.61L2115.79 286.28L2156.70 286.28L2156.70 282.61C2156.70 240.95 2123.87 215.47 2072.91 215.47C2018.77 215.47 1985.20 248.79 1985.20 300C1985.20 351.20 2018.77 384.52 2072.91 384.52M2219.18 382.07L2219.18 316.17L2304.93 316.17L2304.93 382.07L2341.68 382.07L2341.68 217.92L2304.93 217.92L2304.93 283.09L2219.18 283.09L2219.18 217.92L2182.43 217.92L2182.43 382.07" fill="#0A0A0A"/>
</svg>
